<?xml version="1.0" encoding="utf-8"?>
<!-- Generator: Adobe Illustrator 21.1.0, SVG Export Plug-In . SVG Version: 6.00 Build 0)  -->
<svg version="1.1"
	 id="svg2" inkscape:version="0.91 r13725" sodipodi:docname="swift.svg" xmlns:cc="http://creativecommons.org/ns#" xmlns:dc="http://purl.org/dc/elements/1.1/" xmlns:inkscape="http://www.inkscape.org/namespaces/inkscape" xmlns:rdf="http://www.w3.org/1999/02/22-rdf-syntax-ns#" xmlns:sodipodi="http://sodipodi.sourceforge.net/DTD/sodipodi-0.dtd" xmlns:svg="http://www.w3.org/2000/svg"
	 xmlns="http://www.w3.org/2000/svg" xmlns:xlink="http://www.w3.org/1999/xlink" x="0px" y="0px" viewBox="0 0 24 24"
	 style="enable-background:new 0 0 24 24;" xml:space="preserve">
<style type="text/css">
	.st0{fill:#FE5E2F;}
</style>
<sodipodi:namedview  bordercolor="#666666" borderopacity="1" gridtolerance="10" guidetolerance="10" id="namedview6" inkscape:current-layer="svg2" inkscape:cx="-4.9322034" inkscape:cy="11.79661" inkscape:pageopacity="0" inkscape:pageshadow="2" inkscape:window-height="705" inkscape:window-maximized="1" inkscape:window-width="1366" inkscape:window-x="-8" inkscape:window-y="-8" inkscape:zoom="9.8333333" objecttolerance="10" pagecolor="#ffffff" showgrid="false">
	</sodipodi:namedview>
<path id="path4" class="st0" d="M17.1,19.7c-2.4,1.4-5.6,1.5-8.9,0.1c-2.6-1.1-4.8-3.1-6.2-5.3c0.7,0.6,1.5,1,2.3,1.4
	c3.4,1.6,6.7,1.5,9.1,0C10,13.3,7.2,9.9,5,7.2c-0.5-0.5-0.8-1-1.1-1.5c8.3,6,7.9,7.6,2.4-1c4.9,4.9,9.4,7.7,9.4,7.7
	c0.2,0.1,0.2,0.2,0.4,0.2c0.1-0.2,0.2-0.5,0.3-0.8C17.2,9,16.3,5.7,14.3,3c4.6,2.8,7.3,7.9,6.1,12.2c0,0.1-0.1,0.2,0,0.4
	c2.2,2.8,1.6,5.8,1.3,5.2C20.5,18.5,18.2,19.2,17.1,19.7L17.1,19.7z"/>
</svg>
